<?xml version="1.0" standalone="no"?>
<!DOCTYPE svg PUBLIC "-//W3C//DTD SVG 20010904//EN"
 "http://www.w3.org/TR/2001/REC-SVG-20010904/DTD/svg10.dtd">
<svg version="1.0" xmlns="http://www.w3.org/2000/svg"
 width="333.000000pt" height="333.000000pt" viewBox="0 0 333.000000 333.000000"
 preserveAspectRatio="xMidYMid meet">
<metadata>
Created by potrace 1.14, written by Peter Selinger 2001-2017
</metadata>
<g transform="translate(0.000000,333.000000) scale(0.100000,-0.100000)"
fill="#000000" stroke="none">
<path d="M1235 3299 c-623 -7 -622 -7 -750 -56 -104 -40 -222 -132 -300 -233
-57 -74 -93 -146 -119 -235 -19 -67 -20 -104 -24 -978 -4 -1031 0 -1134 49
-1272 74 -211 241 -373 454 -441 130 -41 230 -46 1010 -51 599 -4 780 -2 950
11 230 17 293 29 403 81 184 87 308 231 373 430 31 98 37 322 33 1325 -3 773
-4 819 -23 891 -61 239 -230 413 -481 499 -54 18 -93 23 -230 26 -305 8 -751
9 -1345 3z m435 -310 c216 -27 414 -164 510 -353 33 -65 41 -90 36 -112 -6
-24 -5 -26 9 -14 22 19 174 17 252 -3 170 -44 314 -161 390 -317 60 -125 76
-233 54 -360 -7 -39 -9 -33 -11 50 l-3 95 -7 -85 c-13 -148 -61 -254 -169
-372 -29 -32 -48 -58 -43 -58 6 0 14 5 17 10 3 6 11 10 16 10 13 0 -4 -16 -56
-55 -90 -67 -172 -95 -300 -102 -104 -6 -187 8 -262 43 -29 14 -41 15 -94 4
l-59 -13 17 -26 c19 -28 194 -302 322 -502 45 -69 81 -130 81 -135 0 -5 -75
65 -167 156 -517 509 -485 480 -534 480 -52 0 -142 28 -133 41 3 5 -2 6 -10 3
-18 -7 -22 11 -6 21 10 6 -40 55 -55 55 -4 0 -4 -11 -1 -25 5 -20 0 -31 -19
-49 -32 -30 -92 -59 -108 -52 -7 2 -4 5 6 5 9 1 17 6 17 12 0 6 -21 8 -60 4
-63 -7 -84 8 -29 19 25 5 30 10 26 25 -3 13 0 18 8 15 18 -7 28 39 10 49 -20
11 -19 27 1 27 14 0 14 3 4 15 -10 13 -9 15 9 15 11 0 21 5 21 10 0 6 7 10 16
10 14 0 15 2 3 17 -12 15 -12 16 6 9 28 -11 114 -26 139 -25 11 0 -12 9 -53
20 -41 10 -95 32 -121 49 -52 34 -65 37 -56 15 4 -10 -4 -17 -27 -23 -18 -5
-34 -6 -37 -3 -3 3 -41 6 -85 7 -95 0 -171 26 -231 78 -40 34 -40 34 -64 15
-33 -25 -105 -24 -164 1 -25 12 -46 25 -46 30 0 5 -7 7 -15 3 -20 -7 -45 -55
-45 -84 0 -18 -2 -19 -15 -9 -8 7 -15 19 -15 26 0 8 -4 14 -9 14 -11 0 -56
110 -66 160 -14 71 -19 78 -26 35 -5 -33 -6 -28 -8 31 -3 148 39 259 134 357
73 74 154 121 251 144 l77 19 22 75 c37 130 81 205 175 299 104 105 207 163
339 190 103 22 131 23 241 9z m-1014 -1437 c-4 -3 -14 2 -24 12 -16 18 -16 18
6 6 13 -6 21 -14 18 -18z m691 -8 c-3 -3 -12 -4 -19 -1 -8 3 -5 6 6 6 11 1 17
-2 13 -5z m-652 -14 c3 -5 2 -10 -4 -10 -5 0 -13 5 -16 10 -3 6 -2 10 4 10 5
0 13 -4 16 -10z m2055 -30 c0 -5 -5 -10 -11 -10 -5 0 -7 5 -4 10 3 6 8 10 11
10 2 0 4 -4 4 -10z m-1973 -6 c-3 -3 -12 -4 -19 -1 -8 3 -5 6 6 6 11 1 17 -2
13 -5z m717 -357 c48 -71 55 -101 33 -131 -17 -23 -51 -14 -72 17 -16 26 -33
208 -17 192 5 -5 30 -41 56 -78z m-531 -40 c40 -66 44 -84 24 -112 -18 -24
-64 -13 -77 18 -12 27 -28 185 -21 193 7 6 20 -12 74 -99z m1430 15 c44 -72
49 -86 41 -110 -6 -16 -18 -28 -31 -30 -36 -5 -61 30 -67 95 -4 32 -9 75 -12
96 -7 57 11 44 69 -51z m-608 -103 c27 -45 35 -67 31 -85 -9 -33 -46 -29 -62
6 -13 29 -24 140 -14 140 4 0 24 -27 45 -61z m-490 -30 c27 -45 35 -67 31 -85
-9 -33 -46 -29 -62 6 -13 29 -24 140 -14 140 4 0 24 -27 45 -61z m768 -117
c49 -79 58 -120 32 -142 -21 -17 -62 1 -74 33 -13 35 -25 187 -15 187 5 -1 30
-35 57 -78z m-420 -55 c41 -67 45 -88 21 -112 -44 -44 -82 11 -89 130 -7 103
-7 103 68 -18z m-467 -32 c29 -51 29 -90 -1 -90 -26 0 -45 40 -45 98 0 56 9
54 46 -8z m1095 -127 c14 -34 5 -61 -18 -56 -25 5 -43 46 -43 98 l0 45 25 -30
c13 -16 29 -42 36 -57z m-388 -3 c39 -64 42 -97 13 -108 -25 -10 -49 19 -57
69 -10 64 -11 104 -1 104 4 0 24 -29 45 -65z m-436 -43 c21 -36 24 -47 15 -68
-28 -59 -67 -12 -76 91 l-6 70 21 -25 c11 -13 32 -44 46 -68z"/>
<path d="M1739 1547 c18 -20 21 -30 13 -40 -9 -11 -6 -13 18 -9 35 5 29 17
-24 54 l-31 22 24 -27z"/>
<path d="M1610 1415 c0 -7 50 -55 57 -55 4 0 -6 14 -22 30 -28 30 -35 34 -35
25z"/>
</g>
</svg>
